<?xml version="1.0" encoding="iso-8859-1"?>
<!-- Generator: Adobe Illustrator 19.0.0, SVG Export Plug-In . SVG Version: 6.00 Build 0)  -->
<svg version="1.1" id="Capa_1" xmlns="http://www.w3.org/2000/svg" xmlns:xlink="http://www.w3.org/1999/xlink" x="0px" y="0px"
	 viewBox="0 0 324.501 324.501" style="enable-background:new 0 0 324.501 324.501;" xml:space="preserve">
<g>
	<path d="M324.501,223.665c0-53.581-41.06-97.745-93.366-102.697c-3.535-34.889-33.079-62.208-68.884-62.208
		s-65.349,27.32-68.884,62.208C41.06,125.92,0,170.084,0,223.665v8.466h79.126v33.611h166.249V232.13h79.126V223.665z
		 M162.25,73.759c27.362,0,50.044,20.37,53.709,46.74H108.541C112.207,94.13,134.888,73.759,162.25,73.759z M230.375,250.742H94.126
		V232.13h136.249V250.742z M245.375,217.13H79.126H15.24c3.356-45.573,41.51-81.631,87.925-81.631h118.171
		c46.416,0,84.569,36.058,87.925,81.631H245.375z"/>
	<rect x="61.153" y="176.315" width="15" height="26.842"/>
	<rect x="154.75" y="176.315" width="15" height="26.842"/>
	<rect x="248.348" y="176.315" width="15" height="26.842"/>
</g>
<g>
</g>
<g>
</g>
<g>
</g>
<g>
</g>
<g>
</g>
<g>
</g>
<g>
</g>
<g>
</g>
<g>
</g>
<g>
</g>
<g>
</g>
<g>
</g>
<g>
</g>
<g>
</g>
<g>
</g>
</svg>
